# xmcd
#
# Track frame offsets:
#	150
#	14316
#	41906
#	70540
#
# Disc length: 1286 seconds
#
# Revision: 1
# Processed by: cddbd v1.5.1PL0 Copyright (c) Steve Scherf et al.
# Submitted via: EasyCDDAExtractor 5.0.6
#
DISCID=2b050404
DTITLE=John Butler Trio - Somethings Gotta Give
DYEAR=2004
DGENRE=Blues
TTITLE0=Somethings Gotta Give
TTITLE1=Ocean (Live)
TTITLE2=Somethings Gotta Give (Live)
TTITLE3=data
EXTD=
EXTT0=
EXTT1=
EXTT2=
EXTT3=
PLAYORDER=
